<mxfile host="app.diagrams.net" modified="2023-07-08T09:38:22.816Z" agent="Mozilla/5.0 (Windows NT 10.0; Win64; x64) AppleWebKit/537.36 (KHTML, like Gecko) Chrome/87.0.4280.88 Safari/537.36" version="21.1.5" etag="252XzawOfRFxTnKzwX9b" type="github">
  <diagram name="第 1 页" id="SBbXXd1s9cjQZMYbOweZ">
    <mxGraphModel>
      <root>
        <mxCell id="0" />
        <mxCell id="1" parent="0" />
      </root>
    </mxGraphModel>
  </diagram>
</mxfile>
